<svg width="1024" height="1024" viewBox="0 0 1024 1024" fill="none" xmlns="http://www.w3.org/2000/svg">
<g clip-path="url(#clip0_1_11)">
<path d="M416 87.4376C416 48.1063 466.688 27.9491 497.216 55.1681C591.2 139.015 645.824 323.113 581.216 462.784L577.376 470.562L577.952 470.695C607.952 476.64 635.696 451.476 688.496 373.573L695.216 363.562C699.11 357.724 704.399 352.802 710.669 349.177C716.939 345.552 724.022 343.322 731.368 342.66C738.714 341.999 746.125 342.923 753.025 345.362C759.925 347.802 766.129 351.689 771.152 356.724C835.184 420.861 896 552.353 896 636.96C896 827.583 723.632 981.333 512 981.333C459.866 981.333 410.116 972.003 364.737 955.089C323.716 970.987 278.893 981.333 237.565 981.333C215.984 981.333 205.821 963.398 219.66 945.112C230.873 931.204 244.349 912.826 256.19 893.798C177.574 830.801 128 739.167 128 636.915C128 536.263 177.056 426.134 254.336 355.293L283.376 328.968C294.944 318.42 304.208 309.75 313.04 301.079C381.68 233.501 416 170.391 416 87.4376Z" fill="black"/>
<path d="M416 87.4376C416 48.1063 466.688 27.9491 497.216 55.1681C591.2 139.015 645.824 323.113 581.216 462.784L577.376 470.562L577.952 470.695C607.952 476.64 635.696 451.476 688.496 373.573L695.216 363.562C699.11 357.724 704.399 352.802 710.669 349.177C716.939 345.552 724.022 343.322 731.368 342.66C738.714 341.999 746.125 342.923 753.025 345.362C759.925 347.802 766.129 351.689 771.152 356.724C835.184 420.861 896 552.353 896 636.96C896 827.583 723.632 981.333 512 981.333C459.866 981.333 410.116 972.003 364.737 955.089C323.716 970.987 278.893 981.333 237.565 981.333C215.984 981.333 205.821 963.398 219.66 945.112C230.873 931.204 244.349 912.826 256.19 893.798C177.574 830.801 128 739.167 128 636.915C128 536.263 177.056 426.134 254.336 355.293L283.376 328.968C294.944 318.42 304.208 309.75 313.04 301.079C381.68 233.501 416 170.391 416 87.4376Z" fill="url(#paint0_linear_1_11)"/>
<path d="M374.519 824.835C374.519 824.835 372.693 823.579 369.778 821.433C326.092 788.898 298.667 741.752 298.667 689.262C298.667 591.407 394.193 512 512 512C629.807 512 725.333 591.407 725.333 689.262C725.333 787.163 629.807 863.831 512 863.831C501.95 863.831 485.452 863.191 462.507 861.913C432.593 880.635 388.93 896 350.72 896C338.892 896 333.322 886.639 340.907 877.096C352.427 863.488 368.308 841.684 374.471 824.812L374.519 824.835Z" fill="black"/>
</g>
<defs>
<linearGradient id="paint0_linear_1_11" x1="512" y1="42.6595" x2="512" y2="981.333" gradientUnits="userSpaceOnUse">
<stop stop-color="#FBB500"/>
<stop offset="1" stop-color="#FD4A13"/>
</linearGradient>
<clipPath id="clip0_1_11">
<rect width="1024" height="1024" fill="white"/>
</clipPath>
</defs>
</svg>
